<?xml version="1.0" encoding="utf-8"?>
<!-- Generator: Adobe Illustrator 16.0.0, SVG Export Plug-In . SVG Version: 6.00 Build 0)  -->
<!DOCTYPE svg PUBLIC "-//W3C//DTD SVG 1.1//EN" "http://www.w3.org/Graphics/SVG/1.1/DTD/svg11.dtd">
<svg version="1.1" id="Layer_1" xmlns="http://www.w3.org/2000/svg" xmlns:xlink="http://www.w3.org/1999/xlink" x="0px" y="0px"
	 width="484.318px" height="484.322px" viewBox="0 0 484.318 484.322" enable-background="new 0 0 484.318 484.322"
	 xml:space="preserve">
<path fill="#FF8300" d="M242.162,0C108.419,0,0,108.41,0,242.164c0,133.742,108.419,242.158,242.162,242.158
	c133.747,0,242.156-108.416,242.156-242.158C484.318,108.41,375.909,0,242.162,0z"/>
<g>
	<path fill="#FFFFFF" d="M397.184,187.425c0,0-108.685-3.088-152.145,68.728c0,0,14.749,18.312,14.558,32.084
		c0,0,52.159-71.301,107.208-67.387c0,0,11.005,114.297-105.051,138.658c0,0,10.236-169.888-174.74-170.888
		c0,0-54.627,192.102,174.302,202.372L130.662,219.927c0,0,87.108,19.317,93.786,105.213l51.823,66.059
		C276.27,391.199,435.012,354.05,397.184,187.425z M196.506,353.089c-92.548-34.164-85.839-110.613-85.839-110.613L196.506,353.089z
		"/>
	<path fill="#FFFFFF" d="M102.886,181.968c0,0,22.073-2.223,35.647,2.905c0,0-6.972-26.999,20.012-30.122
		c0,0,1.41-25.872,27.578-20.609c0,0,9.1-25.415,33.058-12.136c0,0,15.324-20.08,35.36-1.607c0,0,21.549-14.745,33.786,10.966
		c0,0,26.013-8.734,29.796,21.058c0,0,28.325,1.093,20.264,27.222l7.657,2.906c0,0,27.364-5.217,32.596-4.095
		c0,0-6.145-10.932-14.516-12.797c0,0,6.716-29.997-27.838-36.075c0,0-3.421-30.837-35.69-24.988c0,0-12.621-23.268-43.565-12.152
		c0,0-17.603-17.389-44.111,1.835c0,0-23.996-10.48-41.492,14.817c0,0-27.669,2.064-33.612,26.823c0,0-28.85,11.495-24.997,36.389
		L102.886,181.968z"/>
</g>
</svg>
